<svg width="26" height="26" viewBox="0 0 26 26" fill="none" xmlns="http://www.w3.org/2000/svg">
<path d="M13 6.5C12.1965 6.5 11.4111 6.73826 10.743 7.18466C10.0749 7.63105 9.55422 8.26552 9.24674 9.00785C8.93926 9.75017 8.85881 10.567 9.01556 11.3551C9.17232 12.1431 9.55923 12.867 10.1274 13.4351C10.6955 14.0033 11.4194 14.3902 12.2075 14.5469C12.9955 14.7037 13.8123 14.6232 14.5547 14.3158C15.297 14.0083 15.9315 13.4876 16.3779 12.8195C16.8242 12.1514 17.0625 11.366 17.0625 10.5625C17.0625 9.48506 16.6345 8.45175 15.8726 7.68988C15.1108 6.92801 14.0774 6.5 13 6.5ZM13 13C12.5179 13 12.0466 12.857 11.6458 12.5892C11.245 12.3214 10.9325 11.9407 10.748 11.4953C10.5636 11.0499 10.5153 10.5598 10.6093 10.087C10.7034 9.61414 10.9355 9.17982 11.2764 8.83893C11.6173 8.49804 12.0516 8.26589 12.5245 8.17184C12.9973 8.07778 13.4874 8.12605 13.9328 8.31054C14.3782 8.49503 14.7589 8.80745 15.0267 9.2083C15.2945 9.60914 15.4375 10.0804 15.4375 10.5625C15.4368 11.2087 15.1797 11.8283 14.7228 12.2853C14.2658 12.7422 13.6462 12.9993 13 13Z" fill="#292D32"/>
<path d="M13 1.625C10.7502 1.625 8.551 2.29213 6.68039 3.54203C4.80978 4.79193 3.35182 6.56847 2.49088 8.64698C1.62993 10.7255 1.40467 13.0126 1.84357 15.2192C2.28248 17.4257 3.36584 19.4525 4.95667 21.0433C6.54749 22.6342 8.57432 23.7175 10.7809 24.1564C12.9874 24.5953 15.2745 24.3701 17.353 23.5091C19.4315 22.6482 21.2081 21.1902 22.458 19.3196C23.7079 17.449 24.375 15.2498 24.375 13C24.3716 9.98421 23.1721 7.0929 21.0396 4.96041C18.9071 2.82792 16.0158 1.6284 13 1.625ZM8.12501 21.4309V20.3125C8.12572 19.6663 8.38275 19.0467 8.83972 18.5897C9.29668 18.1327 9.91626 17.8757 10.5625 17.875H15.4375C16.0838 17.8757 16.7033 18.1327 17.1603 18.5897C17.6173 19.0467 17.8743 19.6663 17.875 20.3125V21.4309C16.3956 22.2948 14.7132 22.75 13 22.75C11.2868 22.75 9.60443 22.2948 8.12501 21.4309ZM19.4939 20.2522C19.4778 19.1864 19.0435 18.1696 18.2847 17.421C17.526 16.6724 16.5034 16.2518 15.4375 16.25H10.5625C9.49659 16.2518 8.47405 16.6724 7.71528 17.421C6.95651 18.1696 6.52225 19.1864 6.5061 20.2522C5.03268 18.9366 3.99363 17.2044 3.52653 15.2851C3.05942 13.3658 3.1863 11.3499 3.89037 9.50435C4.59443 7.65877 5.84246 6.07057 7.46921 4.95005C9.09596 3.82953 11.0247 3.22955 13 3.22955C14.9753 3.22955 16.904 3.82953 18.5308 4.95005C20.1575 6.07057 21.4056 7.65877 22.1096 9.50435C22.8137 11.3499 22.9406 13.3658 22.4735 15.2851C22.0064 17.2044 20.9673 18.9366 19.4939 20.2522Z" fill="#292D32"/>
</svg>
