<svg width="24" height="24" viewBox="0 0 24 24" fill="none" xmlns="http://www.w3.org/2000/svg">
<path d="M8.49079 1L4.50879 4.993" stroke="#292D32" stroke-width="1.5" stroke-miterlimit="10" stroke-linecap="round" stroke-linejoin="round"/>
<path d="M15.5088 1L19.4908 4.993" stroke="#292D32" stroke-width="1.5" stroke-miterlimit="10" stroke-linecap="round" stroke-linejoin="round"/>
<path d="M1 7.43486C1 5.39986 2.089 5.23486 3.442 5.23486H20.558C21.911 5.23486 23 5.39986 23 7.43486C23 9.79986 21.911 9.63486 20.558 9.63486H3.442C2.089 9.63486 1 9.79986 1 7.43486Z" stroke="#292D32" stroke-width="1.5"/>
<path d="M9.53613 14.2002V18.1052" stroke="#292D32" stroke-width="1.5" stroke-linecap="round"/>
<path d="M14.5957 14.2002V18.1052" stroke="#292D32" stroke-width="1.5" stroke-linecap="round"/>
<path d="M2.6499 9.7998L4.2009 19.3038C4.5529 21.4378 5.3999 22.9998 8.5459 22.9998H15.1789C18.5999 22.9998 19.1059 21.5038 19.5019 19.4358L21.3499 9.7998" stroke="#292D32" stroke-width="1.5" stroke-linecap="round"/>
</svg>
