<svg width="24" height="24" viewBox="0 0 24 24" fill="none" xmlns="http://www.w3.org/2000/svg">
<g clip-path="url(#clip0_1_6670)" filter="url(#filter0_d_1_6670)">
<path d="M4 8C4 5.87827 4.84285 3.84344 6.34315 2.34315C7.84344 0.842855 9.87827 0 12 0C14.1217 0 16.1566 0.842855 17.6569 2.34315C19.1571 3.84344 20 5.87827 20 8C20 10.1217 19.1571 12.1566 17.6569 13.6569C16.1566 15.1571 14.1217 16 12 16C9.87827 16 7.84344 15.1571 6.34315 13.6569C4.84285 12.1566 4 10.1217 4 8ZM11.5 1.077C10.83 1.281 10.165 1.897 9.613 2.932C9.47 3.2 9.337 3.492 9.218 3.804C9.923 3.961 10.69 4.061 11.5 4.091V1.077ZM8.249 3.539C8.391 3.155 8.553 2.795 8.73 2.461C8.90291 2.13406 9.10259 1.82199 9.327 1.528C8.47567 1.8808 7.70225 2.398 7.051 3.05C7.413 3.234 7.814 3.399 8.249 3.54V3.539ZM7.509 7.5C7.545 6.43 7.697 5.413 7.945 4.492C7.4037 4.31889 6.87976 4.09559 6.38 3.825C5.58354 4.89435 5.11082 6.16987 5.018 7.5H7.508H7.509ZM8.909 4.759C8.67325 5.65477 8.53907 6.57422 8.509 7.5H11.5V5.091C10.59 5.061 9.717 4.946 8.909 4.759ZM12.5 5.09V7.5H15.49C15.4603 6.57426 15.3264 5.6548 15.091 4.759C14.283 4.946 13.41 5.06 12.5 5.091V5.09ZM8.51 8.5C8.545 9.487 8.686 10.414 8.909 11.241C9.76006 11.0479 10.6277 10.937 11.5 10.91V8.5H8.51ZM12.5 8.5V10.909C13.41 10.939 14.283 11.054 15.091 11.241C15.314 10.414 15.455 9.487 15.491 8.5H12.5ZM9.218 12.196C9.338 12.508 9.47 12.8 9.613 13.068C10.165 14.103 10.831 14.718 11.5 14.923V11.91C10.69 11.94 9.923 12.04 9.218 12.197V12.196ZM9.328 14.472C9.10323 14.1781 8.90321 13.866 8.73 13.539C8.54582 13.1904 8.38513 12.83 8.249 12.46C7.83763 12.5922 7.4371 12.756 7.051 12.95C7.70225 13.602 8.47567 14.1192 9.327 14.472H9.328ZM7.945 11.508C7.68538 10.5252 7.53876 9.51603 7.508 8.5H5.018C5.11077 9.83014 5.5835 11.1057 6.38 12.175C6.85 11.917 7.375 11.693 7.945 11.508ZM14.673 14.472C15.5239 14.1194 16.297 13.6026 16.948 12.951C16.5622 12.7571 16.162 12.5932 15.751 12.461C15.6148 12.8306 15.4541 13.1908 15.27 13.539C15.0971 13.866 14.8975 14.178 14.673 14.472ZM12.5 11.909V14.923C13.17 14.719 13.835 14.103 14.387 13.068C14.53 12.8 14.663 12.508 14.782 12.196C14.0316 12.0315 13.2678 11.9357 12.5 11.91V11.909ZM16.055 11.508C16.625 11.693 17.15 11.917 17.62 12.175C18.4165 11.1057 18.8892 9.83014 18.982 8.5H16.492C16.4612 9.51603 16.3146 10.5252 16.055 11.508ZM18.982 7.5C18.8892 6.16986 18.4165 4.89433 17.62 3.825C17.15 4.083 16.625 4.307 16.055 4.492C16.303 5.412 16.455 6.43 16.492 7.5H18.982ZM15.27 2.461C15.447 2.795 15.609 3.155 15.752 3.539C16.1627 3.40675 16.5626 3.24292 16.948 3.049C16.2969 2.39782 15.5238 1.88132 14.673 1.529C14.891 1.812 15.091 2.126 15.27 2.461ZM14.782 3.804C14.6684 3.50549 14.5365 3.21427 14.387 2.932C13.835 1.897 13.17 1.282 12.5 1.077V4.09C13.31 4.06 14.077 3.96 14.782 3.803V3.804Z" fill="#292D32"/>
</g>
<defs>
<filter id="filter0_d_1_6670" x="0" y="0" width="24" height="24" filterUnits="userSpaceOnUse" color-interpolation-filters="sRGB">
<feFlood flood-opacity="0" result="BackgroundImageFix"/>
<feColorMatrix in="SourceAlpha" type="matrix" values="0 0 0 0 0 0 0 0 0 0 0 0 0 0 0 0 0 0 127 0" result="hardAlpha"/>
<feOffset dy="4"/>
<feGaussianBlur stdDeviation="2"/>
<feComposite in2="hardAlpha" operator="out"/>
<feColorMatrix type="matrix" values="0 0 0 0 0 0 0 0 0 0 0 0 0 0 0 0 0 0 0.25 0"/>
<feBlend mode="normal" in2="BackgroundImageFix" result="effect1_dropShadow_1_6670"/>
<feBlend mode="normal" in="SourceGraphic" in2="effect1_dropShadow_1_6670" result="shape"/>
</filter>
<clipPath id="clip0_1_6670">
<rect width="16" height="16" fill="white" transform="translate(4)"/>
</clipPath>
</defs>
</svg>
