<svg width="12" height="12" viewBox="0 0 12 12" fill="none" xmlns="http://www.w3.org/2000/svg">
<path d="M11.9457 1.08597C11.9457 0.488688 11.457 0 10.8597 0H6.89593C6.62443 0 6.35294 0.108597 6.13575 0.325792L0.325792 6.13575C-0.108597 6.57014 -0.108597 7.27602 0.325792 7.71041L4.28959 11.6742C4.72398 12.1086 5.42986 12.1086 5.86425 11.6742L11.6742 5.86425C11.8914 5.64706 12 5.37557 12 5.10407L11.9457 1.08597ZM8.68778 4.39819C8.0905 4.39819 7.60181 3.9095 7.60181 3.31222C7.60181 2.71493 8.0905 2.22624 8.68778 2.22624C9.28507 2.22624 9.77376 2.71493 9.77376 3.31222C9.77376 3.9095 9.28507 4.39819 8.68778 4.39819Z" fill="white"/>
</svg>
