<svg width="12" height="12" viewBox="0 0 12 12" fill="none" xmlns="http://www.w3.org/2000/svg">
<path d="M9.32475 7.5525C10.5998 7.93875 12 8.3625 12 6C12 4.81332 11.6481 3.65328 10.9888 2.66658C10.3295 1.67989 9.39246 0.910851 8.2961 0.456725C7.19975 0.00259969 5.99335 -0.11622 4.82946 0.115291C3.66558 0.346802 2.59648 0.918247 1.75736 1.75736C0.918247 2.59648 0.346802 3.66558 0.115291 4.82946C-0.11622 5.99335 0.00259969 7.19975 0.456725 8.2961C0.910851 9.39246 1.67989 10.3295 2.66658 10.9888C3.65328 11.6481 4.81332 12 6 12C7.497 12 7.3695 10.872 7.23675 9.69C7.14375 8.86425 7.04775 8.01225 7.5 7.5C7.84875 7.10475 8.565 7.32225 9.32475 7.5525ZM6 3.75C5.85227 3.75 5.70598 3.7209 5.56948 3.66437C5.43299 3.60783 5.30897 3.52496 5.20451 3.4205C5.10004 3.31603 5.01717 3.19201 4.96064 3.05552C4.9041 2.91903 4.875 2.77274 4.875 2.625C4.875 2.47727 4.9041 2.33098 4.96064 2.19448C5.01717 2.05799 5.10004 1.93397 5.20451 1.82951C5.30897 1.72504 5.43299 1.64217 5.56948 1.58564C5.70598 1.5291 5.85227 1.5 6 1.5C6.29837 1.5 6.58452 1.61853 6.7955 1.82951C7.00648 2.04049 7.125 2.32663 7.125 2.625C7.125 2.92337 7.00648 3.20952 6.7955 3.4205C6.58452 3.63148 6.29837 3.75 6 3.75V3.75ZM9.375 6C9.07663 6 8.79049 5.88148 8.57951 5.6705C8.36853 5.45952 8.25 5.17337 8.25 4.875C8.25 4.57663 8.36853 4.29049 8.57951 4.07951C8.79049 3.86853 9.07663 3.75 9.375 3.75C9.67337 3.75 9.95952 3.86853 10.1705 4.07951C10.3815 4.29049 10.5 4.57663 10.5 4.875C10.5 5.17337 10.3815 5.45952 10.1705 5.6705C9.95952 5.88148 9.67337 6 9.375 6V6ZM3.75 4.875C3.75 5.02274 3.7209 5.16903 3.66437 5.30552C3.60783 5.44201 3.52496 5.56603 3.4205 5.6705C3.31603 5.77496 3.19201 5.85783 3.05552 5.91437C2.91903 5.9709 2.77274 6 2.625 6C2.47727 6 2.33098 5.9709 2.19448 5.91437C2.05799 5.85783 1.93397 5.77496 1.82951 5.6705C1.72504 5.56603 1.64217 5.44201 1.58564 5.30552C1.5291 5.16903 1.5 5.02274 1.5 4.875C1.5 4.57663 1.61853 4.29049 1.82951 4.07951C2.04049 3.86853 2.32663 3.75 2.625 3.75C2.92337 3.75 3.20952 3.86853 3.4205 4.07951C3.63148 4.29049 3.75 4.57663 3.75 4.875V4.875ZM4.125 9.75C3.82663 9.75 3.54049 9.63148 3.32951 9.4205C3.11853 9.20952 3 8.92337 3 8.625C3 8.32663 3.11853 8.04049 3.32951 7.82951C3.54049 7.61853 3.82663 7.5 4.125 7.5C4.42337 7.5 4.70952 7.61853 4.9205 7.82951C5.13148 8.04049 5.25 8.32663 5.25 8.625C5.25 8.92337 5.13148 9.20952 4.9205 9.4205C4.70952 9.63148 4.42337 9.75 4.125 9.75Z" fill="white"/>
</svg>
