<svg width="24" height="24" viewBox="0 0 24 24" fill="none" xmlns="http://www.w3.org/2000/svg">
<path d="M13.2302 21.9131C13.2235 21.9173 13.2169 21.9215 13.2103 21.9259L11.5893 23.0124C10.586 23.6499 9.14535 22.9338 9.14535 21.5791V15.1538C9.14535 14.6067 8.99889 14.027 8.80488 13.5213C8.60954 13.0122 8.34428 12.5217 8.06013 12.1514C8.04728 12.1347 8.03372 12.1185 8.01949 12.1029L3.60089 7.25362L3.58778 7.23961C3.37438 7.01712 3.15748 6.67532 2.99424 6.29567C2.82864 5.91051 2.75 5.5605 2.75 5.33415V2.54585C2.75 1.45089 3.51311 0.75 4.32558 0.75H19.6744C20.5101 0.75 21.25 1.47551 21.25 2.42462V5.09169C21.25 5.44095 21.1413 5.88174 20.9491 6.32249C20.7618 6.75214 20.5225 7.11931 20.3105 7.34548L15.3364 11.9284C14.8772 12.3307 14.5308 12.8934 14.2995 13.4619C14.065 14.0382 13.9244 14.6797 13.9244 15.2751V20.488C13.9244 20.7088 13.8485 21.0183 13.698 21.3201C13.5443 21.6283 13.362 21.8306 13.2302 21.9131Z" stroke="#292D32" stroke-width="1.5" stroke-miterlimit="10" stroke-linecap="round" stroke-linejoin="round"/>
<path d="M10.9409 1.13672L5.05859 8.71567" stroke="#292D32" stroke-width="1.5" stroke-miterlimit="10" stroke-linecap="round" stroke-linejoin="round"/>
</svg>
